<?xml version="1.0" standalone="no"?>
<!DOCTYPE svg PUBLIC "-//W3C//DTD SVG 20010904//EN"
 "http://www.w3.org/TR/2001/REC-SVG-20010904/DTD/svg10.dtd">
<svg version="1.0" xmlns="http://www.w3.org/2000/svg"
 width="273.000000pt" height="127.000000pt" viewBox="0 0 273.000000 127.000000"
 preserveAspectRatio="xMidYMid meet">
<metadata>
Created by potrace 1.16, written by Peter Selinger 2001-2019
</metadata>
<g transform="translate(0.000000,127.000000) scale(0.100000,-0.100000)"
fill="#000000" stroke="none">
<path d="M650 1110 c-14 -4 -105 -34 -202 -66 -98 -32 -176 -59 -174 -61 2 -2
77 19 167 47 89 27 168 50 173 50 6 -1 -34 -24 -89 -53 -59 -31 -100 -58 -100
-67 0 -23 46 -15 150 24 50 18 92 31 95 28 3 -2 0 -7 -7 -9 -29 -10 -78 -50
-81 -66 -5 -25 34 -22 125 12 43 16 87 33 98 37 14 5 10 -3 -15 -30 -29 -31
-32 -38 -20 -47 14 -9 37 -7 85 8 18 5 18 4 6 -11 -22 -27 -7 -29 75 -12 43 8
80 13 82 11 10 -10 -44 -75 -62 -75 -10 0 -66 7 -125 15 -58 8 -142 20 -186
26 -44 5 -109 14 -145 19 -36 5 -103 14 -150 20 -47 6 -114 15 -150 20 -36 5
-84 11 -107 15 l-43 5 0 -109 0 -109 53 -22 c86 -38 145 -50 288 -60 80 -6
161 -18 200 -29 115 -36 161 -42 344 -51 99 -5 213 -16 253 -24 40 -9 75 -16
78 -16 2 0 4 58 4 128 l0 128 -102 13 c-143 18 -148 19 -148 45 0 12 7 31 15
42 8 10 15 27 15 37 0 19 -18 19 -85 0 -19 -5 -19 -5 -2 14 9 11 17 23 17 26
0 13 -47 7 -105 -13 -73 -25 -90 -21 -42 9 42 26 67 48 67 61 0 22 -40 17
-127 -16 -52 -19 -97 -34 -99 -31 -2 2 26 19 63 38 68 34 95 69 55 69 -11 0
-71 -18 -132 -40 -61 -22 -117 -40 -123 -40 -7 1 28 22 78 48 86 45 116 73 78
71 -10 0 -29 -4 -43 -9z"/>
<path d="M2301 1071 c-10 -10 -27 -40 -37 -66 -17 -45 -17 -49 -1 -78 17 -29
17 -31 -1 -48 -25 -23 -36 -82 -21 -111 7 -13 15 -30 19 -38 14 -29 65 -24
104 11 39 34 92 116 82 126 -3 3 -10 -5 -15 -19 -13 -34 -75 -98 -94 -98 -49
0 -37 104 15 141 35 25 36 39 3 39 -31 0 -39 18 -31 65 9 46 45 88 69 80 9 -4
17 -16 17 -27 0 -11 5 -18 13 -15 20 6 14 31 -13 44 -37 19 -87 16 -109 -6z"/>
<path d="M2046 1068 c-39 -119 -79 -347 -65 -363 20 -20 44 13 60 81 l15 69
38 -80 c55 -118 101 -162 137 -129 23 20 24 34 4 34 -22 0 -76 59 -117 128
l-37 62 28 14 c45 24 122 108 119 130 -4 23 -28 34 -28 13 0 -19 -117 -144
-126 -135 -3 4 -1 30 5 58 16 77 14 108 -9 120 -15 8 -21 8 -24 -2z"/>
<path d="M1572 1045 c-78 -65 -96 -273 -29 -320 39 -27 72 -19 110 28 36 44
71 106 64 113 -2 2 -12 -14 -22 -35 -23 -52 -67 -94 -88 -85 -10 3 -20 18 -24
33 -27 97 31 304 77 276 7 -4 10 -16 7 -26 -3 -12 0 -19 9 -19 17 0 18 32 2
48 -21 21 -74 14 -106 -13z"/>
<path d="M1875 1040 c-3 -5 -7 -41 -10 -80 -2 -38 -7 -75 -10 -80 -3 -6 -20
-10 -36 -10 l-30 0 34 65 c41 78 19 66 -26 -14 -17 -29 -38 -56 -48 -58 -10
-3 -15 -11 -12 -19 2 -7 -11 -37 -30 -66 -20 -29 -34 -55 -31 -57 3 -3 9 1 14
9 43 70 88 120 107 120 12 0 28 2 36 6 12 4 13 -8 9 -71 -5 -82 8 -125 38
-125 14 0 16 13 16 94 -1 79 2 98 18 115 11 12 14 21 7 21 -8 0 -10 17 -6 57
3 31 3 65 0 74 -7 20 -32 32 -40 19z"/>
<path d="M1346 568 c-2 -7 -11 -78 -20 -158 -8 -80 -17 -154 -18 -165 -3 -21
19 -30 40 -17 20 13 42 109 42 182 0 53 5 72 25 103 34 50 55 49 55 -2 0 -53
-16 -92 -40 -98 -22 -6 -24 -11 -10 -33 23 -35 110 53 110 112 0 37 -41 81
-67 71 -10 -3 -28 -15 -40 -26 -24 -21 -22 -23 -38 28 -5 18 -34 20 -39 3z"/>
<path d="M2491 561 c-10 -10 -27 -40 -37 -66 -17 -45 -17 -49 -1 -78 17 -29
17 -31 -1 -48 -25 -23 -36 -82 -21 -111 7 -13 15 -30 19 -38 14 -29 65 -24
104 11 39 34 92 116 82 126 -3 3 -10 -5 -15 -19 -13 -34 -75 -98 -94 -98 -49
0 -37 104 15 141 35 25 36 39 3 39 -31 0 -39 18 -31 65 9 46 45 88 69 80 9 -4
17 -16 17 -27 0 -11 5 -18 13 -15 20 6 14 31 -13 44 -37 19 -87 16 -109 -6z"/>
<path d="M2263 542 c-42 -33 -67 -108 -67 -205 -1 -85 0 -90 27 -113 41 -35
72 -31 113 15 38 42 78 110 70 118 -2 3 -14 -15 -26 -39 -26 -51 -58 -88 -76
-88 -28 0 -47 60 -41 129 6 77 41 176 64 185 19 8 34 -11 26 -31 -3 -7 0 -13
6 -13 7 0 14 7 18 16 15 39 -72 59 -114 26z"/>
<path d="M1609 492 c-18 -26 -46 -68 -62 -94 -15 -27 -35 -48 -43 -48 -10 0
-14 -6 -11 -15 4 -8 -10 -38 -29 -66 -19 -29 -33 -54 -30 -56 4 -4 13 7 70 86
23 31 37 41 58 41 36 0 44 -3 40 -15 -11 -33 -4 -136 11 -159 31 -46 42 -24
42 84 0 87 2 101 20 114 13 10 15 15 6 16 -11 0 -13 14 -9 65 5 52 2 67 -11
79 -16 14 -20 12 -52 -32z"/>
<path d="M2012 444 c-37 -56 -70 -94 -79 -94 -13 0 -14 -3 -6 -11 9 -9 2 -27
-28 -70 -22 -33 -36 -59 -30 -59 5 0 23 22 40 49 40 62 59 78 99 83 l32 5 -6
-63 c-7 -70 -1 -105 22 -128 27 -28 34 -8 34 94 0 91 2 100 22 114 15 11 18
16 7 16 -12 0 -14 13 -11 69 4 60 2 71 -15 79 -16 9 -26 -2 -81 -84z"/>
<path d="M1786 513 c-2 -10 -7 -38 -11 -63 -19 -133 -38 -236 -46 -246 -12
-15 34 -24 110 -23 62 1 59 4 -11 14 l-48 6 15 35 c7 18 19 69 25 111 6 43 14
95 17 115 6 39 -8 68 -33 68 -7 0 -15 -8 -18 -17z"/>
<path d="M52 449 l3 -54 305 -61 c168 -33 382 -75 475 -93 94 -18 190 -37 215
-42 82 -17 199 -39 210 -39 6 0 10 27 10 66 l0 65 -56 25 c-108 48 -160 57
-329 60 -176 2 -217 10 -315 59 -86 43 -122 48 -238 35 -95 -11 -152 -5 -260
26 -22 6 -23 5 -20 -47z"/>
</g>
</svg>
